<svg width="28" height="28" viewBox="0 0 28 28" fill="none" xmlns="http://www.w3.org/2000/svg">
    <path d="M10.3252 21.2671L13.396 24.3379V10.4907H15.3033V24.3761L18.4123 21.2671L19.7665 22.6213L14.3687 28L8.97098 22.6213L10.3252 21.2671ZM24.1152 8.3163V8.24001C26.7301 9.37642 28.1764 12.2032 27.5683 14.9887C26.9601 17.7742 24.4672 19.7409 21.6166 19.684H16.7529V17.7767H21.5975C23.5852 17.7918 25.2891 16.3601 25.6166 14.3996C25.9442 12.439 24.7982 10.5312 22.9136 9.89939C22.5668 9.77619 22.3218 9.46442 22.2842 9.09831C21.8635 5.09338 18.5159 2.03481 14.4894 1.97645C10.4628 1.9181 7.02802 4.87838 6.49145 8.86943C6.43112 9.30927 6.07527 9.64931 5.63315 9.68958C3.39996 9.79492 1.67499 11.6907 1.78033 13.9239C1.88567 16.1571 3.78142 17.882 6.01461 17.7767H11.9083V19.684H5.99554C2.94441 19.7067 0.370454 17.4181 0.0362006 14.3852C-0.298052 11.3523 1.71571 8.55807 4.69855 7.91576C5.63081 3.2826 9.71916 -0.0376898 14.445 0.000323075H14.5785C19.3513 0.0985003 23.3683 3.60135 24.1152 8.3163Z" fill="#3CB6AD"/>
</svg>
